<?xml version="1.0" encoding="UTF-8"?>
<svg id="Layer_2" data-name="Layer 2" xmlns="http://www.w3.org/2000/svg" viewBox="0 0 1281.71 1468.39">
  <defs>
    <style>
      .cls-1 {
        fill: #fff;
        fill-rule: evenodd;
      }
    </style>
  </defs>
  <g id="Layer_2-2" data-name="Layer 2">
    <g>
      <polygon class="cls-1" points="616.49 1116.12 659.71 1096.88 659.71 1335.96 616.49 1355.09 616.49 1116.12"/>
      <polygon class="cls-1" points="853.64 1116.12 896.91 1096.02 896.91 1335.57 853.64 1355.75 853.64 1116.12"/>
      <path class="cls-1" d="M763.58,1300.35s25.38,13.69,37.56,37.61c0,0-97.31,61.66-106.99,39.3,0,0-17.98-15.22,69.43-76.91m-32.78,111.74c-82.54,33.23-67.13-43.82-67.13-43.82,0-26.5,67.36-94.84,67.36-94.84v-42.26s103.75,62.26,103.75,97.3v21.05s.14,12.46-23.08,22.63l-80.91,39.95Z"/>
      <path class="cls-1" d="M1107,1260.88v48.19l-338.53,159.32v-48.3l228.05-107.18v-27.17c-82.54,33.21-67.07-43.87-67.07-43.87,0-26.5,67.3-94.81,67.3-94.81v-42.29s103.78,62.26,103.78,97.35v21.04s.16,12.49-23.16,22.61l-60.93,31.96v25.8l90.54-42.64Zm-110.47-60.69l.19,50.99s-57.32,15.61-35.89-14.78l35.71-36.22Zm19.22,41.9v-57.81s36.65,4.04,41.09,21.01c0,0,9.32,16.71-41.09,36.8"/>
      <path class="cls-1" d="M413.22,1378.67c-24.1,11.06-141,66.05-141,66.05,0,0-75.58,36.77-93.12-26.81,0,0-22.7-67.59,35.23-95.17l132.42-62.59v47.78l-122.44,58.99c-25.9,12.3-18.36,32.6-18.36,32.6,5.3,21.43,38.79,10.78,38.79,10.78l147.84-70.02-.3-224.15,43.23-18.66v246.57s1.78,23.57-22.31,34.63"/>
      <path class="cls-1" d="M569.89,1359.55l-133.64,62.64v-48.48l136.02-63.93-.13-17.67s-124.45,74.28-118.31,.72c0,0-7.49-71.23,44.33-82.68,0,0,76.24-13.26,105.23,88.03,0,0,7.43,46.82-33.5,61.36m-33.61-95.68l-54.36,21.12s-8.12-23.51,12.28-31.09c0,0,34.46-10.76,42.08,9.97"/>
      <path class="cls-1" d="M670.52,818.77c344.65-95.17,604.12-244.4,579.38-333.23-14.17-50.98-118.88-70.99-270.65-60.81l-2.77,2.22-7.7,6.45c100.9-1.51,168.42,16.08,178.75,53.24,20.77,74.75-197.55,200.34-487.55,280.44-290.05,80.07-542.13,84.37-562.92,9.61-9.89-35.56,34.38-82.65,114.74-130.86,3.79-2.28,7.6-4.58,11.41-6.81,3.45-5.29,7.1-10.48,10.94-15.95-1.46,.71-7.95,4.28-9.41,4.97C75.75,700.64-13.31,776.47,1.63,830.22c24.72,88.83,324.25,83.7,668.9-11.45"/>
      <path class="cls-1" d="M633.99,260.24C335.2,466.67,136.67,696.09,190.62,772.59c38.82,55.02,197.69,15.97,395-87.09v-9.93c-150.07,73.65-268,99.14-298.4,56.08-45.4-64.4,121.7-257.46,373.13-431.18C911.81,126.77,1152.56,38.1,1197.98,102.46c36.16,51.25-61.33,185.33-230.92,323.74l-8.83,7.19,11-.02c217.92-174.48,348.65-344.66,303.64-408.45-53.97-76.47-340.05,28.9-638.88,235.32"/>
    </g>
  </g>
</svg>